<svg width="114" height="34" viewBox="0 0 20 34" fill="none" xmlns="http://www.w3.org/2000/svg">
<g clip-path="url(#clip0_2415_50531)">
<path d="M16.7524 33.4749C13.8178 32.5095 13.4043 29.4318 13.9805 26.8209C14.1193 25.9435 14.3807 24.866 14.6608 23.5299C14.957 22.1404 15.1944 21.0603 15.3385 20.2922C15.4735 19.5991 15.5529 18.8964 15.5759 18.1907C15.5626 16.7505 15.0423 15.9878 14.0312 15.9958C13.3243 15.9958 11.4995 16.5878 10.7472 19.9962C10.7472 19.9962 10.3603 22.3511 9.10113 27.7303C7.43908 36.3899 3.43737 33.5389 0.00390625 32.2455C1.00433 32.1761 2.20218 30.8133 2.82645 28.5331C4.96069 20.7376 7.89528 4.59722 7.89528 4.59722L14.3407 3.48511L11.9023 14.4756C12.6135 13.6214 13.5142 12.9447 14.5328 12.4994C15.2682 12.2212 16.0462 12.0723 16.8324 12.0593C18.265 12.046 19.3935 12.4034 20.2686 13.1608C21.1463 13.9742 21.6025 15.2117 21.6265 16.8545C21.587 18.151 21.4127 19.4399 21.1063 20.7003C20.9995 21.1563 20.8608 21.8337 20.6687 22.7645C20.2659 24.3033 19.3135 27.981 20.6901 29.5172C22.4508 31.4854 25.2974 29.4692 26.1724 26.1995C24.5584 33.3683 19.1267 34.2537 16.7524 33.4749Z" fill="#815af0"></path>
</g>
<defs>
<clipPath id="clip0_2415_50531">
<rect width="114" height="33.5902" fill="white" transform="translate(0 0.204834)"></rect>
</clipPath>
</defs>
</svg>
